<?xml version="1.0" standalone="no"?>
<!DOCTYPE svg PUBLIC "-//W3C//DTD SVG 20010904//EN"
 "http://www.w3.org/TR/2001/REC-SVG-20010904/DTD/svg10.dtd">
<svg version="1.0" xmlns="http://www.w3.org/2000/svg"
 width="300.000000pt" height="300.000000pt" viewBox="0 0 300.000000 300.000000"
 preserveAspectRatio="xMidYMid meet">
<metadata>
Created by potrace 1.10, written by Peter Selinger 2001-2011
</metadata>
<g transform="translate(0.000000,300.000000) scale(0.100000,-0.100000)"
fill="#000000" stroke="none">
<path d="M1542 2985 c-8 -12 -12 -83 -5 -107 5 -22 23 -24 23 -3 0 10 9 14 25
13 29 -3 51 -23 57 -53 3 -16 12 -20 48 -21 l45 0 6 -62 c7 -69 9 -75 32 -67
12 5 13 13 7 35 -17 58 -23 160 -10 160 7 0 10 -7 6 -15 -3 -9 1 -15 11 -15
13 0 15 -8 10 -43 -4 -28 -2 -48 6 -56 9 -9 9 -14 -2 -20 -10 -6 -10 -13 -2
-29 8 -15 8 -22 -2 -25 -9 -4 -9 -6 1 -6 7 -1 20 -7 28 -15 15 -16 19 -41 5
-32 -5 4 -12 0 -14 -6 -4 -10 -6 -10 -6 0 -1 6 -6 12 -11 12 -6 0 -5 -8 2 -19
7 -12 16 -17 23 -11 10 8 50 -13 43 -23 -2 -3 0 -9 5 -13 4 -4 7 -2 7 4 0 7 4
12 10 12 5 0 7 -6 4 -14 -3 -8 0 -17 7 -22 9 -5 10 -2 6 9 -9 23 -1 21 24 -4
17 -17 19 -23 8 -31 -10 -7 -8 -8 8 -3 20 5 37 -10 42 -37 3 -13 57 -63 69
-64 34 -3 37 -4 22 -14 -10 -6 -11 -10 -2 -10 17 0 52 -37 44 -46 -4 -4 1 -4
11 -1 14 5 17 1 17 -23 0 -17 4 -30 9 -30 5 0 22 -21 37 -47 15 -27 30 -50 34
-53 3 -3 12 -20 19 -37 8 -18 17 -33 22 -33 12 0 -1 62 -17 81 -8 8 -14 37
-14 62 0 46 1 47 25 41 18 -4 25 -2 25 8 0 22 -12 29 -27 17 -10 -9 -13 -8
-13 2 0 8 -9 -1 -21 -20 l-20 -33 -25 23 c-30 28 -30 39 0 39 13 0 29 7 36 15
11 13 7 15 -24 15 -20 0 -38 0 -41 -1 -9 0 -125 102 -173 153 -25 26 -64 60
-87 75 l-43 27 -13 178 c-8 117 -16 177 -23 175 -6 -2 -12 -16 -14 -31 -2 -18
0 -26 7 -21 7 4 11 -4 10 -22 0 -15 -3 -23 -5 -17 -3 7 -14 10 -24 7 -14 -4
-21 2 -26 21 -3 14 -11 26 -16 26 -5 0 -18 10 -28 23 -10 12 -21 19 -25 16 -3
-4 7 -21 24 -38 29 -29 44 -70 21 -56 -5 3 -10 13 -10 22 0 11 -6 14 -22 9
-62 -18 -79 -19 -76 -5 2 8 -4 13 -15 12 -13 -1 -17 4 -12 15 4 12 1 12 -16
-4 l-22 -19 5 25 c3 14 9 33 13 42 5 13 2 17 -15 15 -12 -1 -25 -6 -28 -12z
m193 -130 c0 -27 -69 -35 -79 -10 -10 26 3 36 42 33 29 -2 37 -7 37 -23z"/>
<path d="M1878 2938 c2 -35 5 -64 7 -66 1 -1 10 0 19 4 13 5 15 18 13 65 -2
52 -4 59 -23 59 -19 0 -20 -5 -16 -62z"/>
<path d="M1951 2970 c0 -19 3 -41 8 -49 15 -24 19 3 6 44 l-13 40 -1 -35z"/>
<path d="M2012 2958 l5 -43 -66 -30 c-36 -16 -69 -31 -73 -31 -5 -1 -11 -2
-14 -3 -4 0 -1 -8 6 -16 7 -9 16 -12 19 -8 3 4 24 18 47 30 31 17 43 20 52 11
9 -9 12 -9 12 0 0 7 6 12 14 12 8 0 17 7 20 16 4 10 14 14 26 11 13 -3 18 -1
13 6 -4 6 2 8 15 5 15 -4 22 -2 22 8 0 17 17 18 23 2 3 -8 6 -6 6 5 2 37 20
14 24 -30 l4 -48 -1 53 c-1 41 3 53 16 58 10 3 22 3 27 0 5 -3 12 -57 16 -119
4 -63 11 -120 15 -127 8 -13 6 36 -9 188 -7 68 -6 73 11 69 11 -3 18 0 18 10
0 12 -7 14 -35 9 -31 -6 -123 -42 -167 -67 -25 -13 -32 -11 -19 5 15 18 3 66
-16 66 -12 0 -15 -9 -11 -42z"/>
<path d="M2603 2974 c-46 -27 -58 -50 -20 -39 24 8 88 65 72 65 -6 0 -29 -12
-52 -26z"/>
<path d="M2648 2964 c-28 -32 -41 -71 -16 -46 18 18 48 15 48 -5 0 -16 1 -16
16 -2 14 15 14 19 -3 50 l-18 34 -27 -31z"/>
<path d="M2755 2973 c0 -12 3 -23 7 -23 4 0 9 -21 11 -47 2 -28 3 -18 3 23 -1
40 -5 71 -11 71 -5 0 -10 -11 -10 -24z"/>
<path d="M2796 2990 c6 -6 25 -14 42 -19 27 -8 34 -7 42 10 10 18 7 19 -42 19
-35 0 -49 -3 -42 -10z"/>
<path d="M2257 2870 c3 -52 9 -111 13 -130 5 -20 6 10 2 70 -3 58 -9 116 -13
130 -4 14 -5 -18 -2 -70z"/>
<path d="M2961 2942 c-19 -9 -36 -22 -38 -29 -3 -8 5 -7 26 3 17 8 35 13 41 9
5 -3 10 3 10 14 0 12 -1 21 -2 21 -2 -1 -18 -9 -37 -18z"/>
<path d="M2875 2895 c-16 -13 -38 -24 -47 -25 -19 0 -26 -30 -8 -30 6 0 10 3
10 8 0 4 18 16 40 26 22 11 40 25 40 33 0 17 0 17 -35 -12z"/>
<path d="M2940 2899 c0 -5 5 -9 10 -9 6 0 10 -7 10 -16 0 -14 3 -14 15 -4 23
19 18 38 -10 38 -14 0 -25 -4 -25 -9z"/>
<path d="M2359 2894 c-3 -31 4 -124 10 -154 5 -22 7 1 3 60 -4 82 -10 125 -13
94z"/>
<path d="M2843 2835 c-20 -18 -23 -23 -9 -18 17 6 16 1 -7 -29 -15 -19 -24
-38 -19 -43 4 -5 2 -5 -4 -2 -7 4 -11 -3 -11 -20 0 -15 -6 -29 -12 -31 -13 -4
-15 -32 -2 -32 4 0 8 -12 7 -27 -1 -17 -6 -27 -14 -25 -7 1 -12 -3 -11 -10 3
-26 -1 -39 -11 -33 -5 3 -7 12 -3 20 3 8 0 15 -7 15 -7 0 -18 8 -25 17 -11 14
-16 15 -28 5 -9 -8 -18 -9 -21 -3 -4 5 2 12 13 16 11 3 22 12 25 20 8 23 29
18 23 -5 -3 -11 -1 -20 3 -20 5 0 10 27 12 59 2 45 0 57 -9 50 -8 -7 -15 -4
-22 9 -7 14 -18 18 -38 16 -15 -2 -21 -1 -13 2 8 4 23 11 34 16 13 7 16 7 12
-1 -4 -6 -3 -11 2 -11 6 0 12 7 16 15 3 8 18 20 33 27 l28 11 -25 7 c-14 4
-34 3 -45 -1 -66 -24 -115 -50 -115 -60 0 -8 -4 -8 -15 1 -12 10 -15 10 -15
-3 0 -10 -16 -21 -42 -29 -24 -7 -54 -23 -68 -35 -14 -13 -30 -21 -35 -19 -6
2 -20 -3 -30 -11 -19 -14 -18 -15 10 -8 39 9 58 13 68 14 5 1 5 5 2 11 -3 6 1
7 10 4 9 -4 15 -3 14 2 -4 21 2 26 16 14 13 -11 18 -10 31 8 9 14 23 20 42 18
15 -1 44 1 64 5 45 8 78 -12 77 -44 0 -12 -3 -16 -6 -9 -4 10 -9 9 -24 -4 -10
-9 -19 -23 -19 -31 0 -7 -11 -13 -24 -13 -14 0 -28 -4 -31 -10 -3 -5 -1 -10 4
-10 6 0 11 -5 11 -10 0 -7 -16 -9 -39 -6 -29 3 -49 -2 -80 -21 -42 -25 -52
-45 -13 -24 12 6 27 11 34 11 15 0 -32 -39 -48 -40 -17 0 -64 -40 -64 -53 1
-7 10 -1 20 12 15 17 20 19 20 8 0 -9 -10 -23 -22 -31 -12 -9 -17 -16 -10 -16
10 0 10 -5 2 -21 -7 -11 -9 -23 -7 -25 5 -6 59 71 70 99 4 10 11 16 17 12 5
-3 15 3 22 15 8 12 23 20 40 20 16 0 28 4 28 9 0 5 16 9 36 9 20 0 41 5 47 11
18 18 35 13 35 -11 0 -13 3 -35 7 -50 6 -21 1 -32 -23 -58 -17 -17 -34 -31
-39 -30 -4 1 -10 -6 -11 -16 -3 -10 0 -14 7 -10 7 5 9 1 5 -8 -3 -9 -10 -16
-15 -16 -5 0 -9 -9 -9 -20 0 -34 20 -22 40 24 11 24 27 49 35 56 8 7 15 19 15
27 0 8 4 12 9 9 5 -4 11 -1 13 4 2 6 19 13 38 15 19 3 47 14 62 25 28 21 78
27 78 10 0 -5 7 -10 15 -10 8 0 15 7 15 15 0 8 7 15 15 15 8 0 15 5 15 10 0
12 -27 14 -34 2 -8 -14 -68 -14 -64 0 3 7 12 13 21 13 8 0 19 4 23 8 4 4 16 7
26 7 10 0 18 7 18 16 0 10 -6 14 -15 10 -23 -8 -18 22 5 36 16 11 20 23 19 68
-1 30 -4 46 -6 35 -3 -11 -12 -28 -20 -37 -8 -9 -12 -25 -9 -36 6 -17 2 -19
-49 -16 -38 2 -54 0 -52 -9 1 -7 -12 -13 -32 -15 -24 -3 -32 0 -29 10 3 7 14
14 26 16 27 4 19 22 -9 22 -19 0 -19 1 -5 22 9 12 16 32 16 44 0 11 9 29 21
40 16 15 24 16 39 6 11 -7 28 -12 37 -12 11 0 14 -3 7 -8 -13 -9 -64 -84 -64
-94 0 -5 11 -8 24 -8 29 0 56 38 56 80 0 25 4 30 25 30 14 0 25 5 25 11 0 8
-13 9 -40 5 -25 -4 -40 -2 -40 4 0 5 11 10 25 10 14 0 25 4 25 10 0 5 -7 6
-17 3 -11 -4 -14 -3 -9 5 9 15 7 15 -43 -3 -41 -14 -57 -5 -23 14 9 6 12 11 5
11 -7 0 -25 -11 -40 -25z m107 -217 c0 -20 -5 -28 -17 -28 -10 -1 -36 -7 -57
-15 -34 -12 -42 -12 -63 2 -18 12 -21 19 -12 29 6 8 15 12 19 9 4 -2 25 4 46
15 55 27 84 23 84 -12z m-135 -53 c17 -13 17 -17 5 -29 -20 -18 -65 -32 -56
-17 4 6 2 11 -4 11 -6 0 -4 10 6 25 19 29 22 30 49 10z"/>
<path d="M2113 2775 c0 -33 2 -45 4 -27 2 18 2 45 0 60 -2 15 -4 0 -4 -33z"/>
<path d="M2778 2803 c-10 -2 -18 -9 -18 -14 0 -6 5 -7 11 -3 7 4 10 1 7 -7 -3
-8 -10 -13 -16 -12 -6 2 -9 -4 -5 -12 4 -12 10 -10 29 12 34 40 33 47 -8 36z"/>
<path d="M1997 2722 c6 -94 11 -100 12 -15 1 39 -3 74 -8 77 -5 3 -7 -24 -4
-62z"/>
<path d="M1971 2703 c0 -40 2 -73 7 -73 4 0 6 24 4 52 -5 89 -9 97 -11 21z"/>
<path d="M2458 2758 c-9 -7 -19 -24 -23 -38 -6 -25 -6 -25 12 -5 10 11 26 28
36 38 22 20 1 25 -25 5z"/>
<path d="M1250 2752 c0 -6 -7 -9 -15 -6 -8 3 -31 0 -52 -7 -21 -7 -43 -12 -50
-11 -6 1 -15 -3 -20 -10 -10 -17 -11 -98 -1 -98 4 0 7 4 6 8 -4 12 61 72 89
83 18 7 23 5 23 -9 0 -13 2 -14 9 -4 4 8 11 13 15 12 4 -1 12 1 19 3 9 4 8 8
-3 16 -11 8 5 10 61 6 85 -5 134 -19 123 -36 -4 -8 0 -8 15 0 16 9 28 8 52 -4
17 -9 29 -18 26 -21 -2 -2 -17 2 -32 10 -16 8 -33 12 -38 9 -11 -6 13 -22 41
-28 23 -4 112 -64 112 -74 0 -4 15 -16 34 -26 19 -11 32 -23 29 -28 -3 -6 -1
-7 6 -3 15 10 2 27 -62 78 -51 40 -48 50 5 22 25 -13 32 -13 39 -3 5 8 3 17
-4 22 -7 5 -2 6 13 3 14 -3 39 -2 55 3 29 7 29 8 -14 15 -24 4 -63 4 -87 0
-34 -5 -52 -1 -91 19 -26 14 -66 33 -88 42 -50 20 -215 33 -215 17z"/>
<path d="M0 2744 c0 -5 58 -27 128 -48 70 -22 159 -50 197 -62 39 -12 84 -24
100 -27 64 -13 -39 25 -215 78 -96 30 -183 57 -192 60 -10 4 -18 3 -18 -1z"/>
<path d="M2578 2713 c-9 -2 -19 -11 -22 -19 -3 -8 -2 -13 2 -11 4 3 22 -2 41
-12 34 -16 35 -16 63 11 15 14 28 29 28 32 0 3 -19 6 -42 6 -33 0 -39 -3 -30
-12 24 -24 14 -38 -18 -26 -29 9 -29 11 -13 24 19 14 18 14 -9 7z"/>
<path d="M2501 2703 c4 -23 -5 -31 -43 -43 -24 -7 -53 -14 -65 -15 -29 -4 -45
-14 -38 -26 4 -5 1 -9 -5 -9 -7 0 -10 7 -6 15 7 18 -10 20 -18 3 -3 -7 -4 -4
-1 8 4 15 -2 24 -22 34 -16 7 -35 15 -43 16 -17 3 -99 -56 -100 -72 0 -6 11
-21 25 -34 24 -22 25 -22 25 -4 0 11 6 26 13 34 6 8 2 6 -10 -4 -24 -20 -31
-10 -10 15 28 34 43 39 76 28 21 -7 30 -16 27 -25 -3 -8 -1 -14 5 -14 5 0 2
-11 -7 -25 -8 -13 -13 -29 -9 -35 7 -11 -5 -13 -75 -12 -49 0 -92 -25 -68 -40
9 -5 6 -8 -9 -9 -13 -1 -27 -3 -33 -4 -5 -1 -14 -3 -20 -4 -5 0 -10 -8 -10
-17 0 -11 6 -14 20 -9 14 4 20 2 20 -8 0 -30 63 -30 74 0 4 11 2 13 -9 9 -8
-3 -25 -1 -37 4 -20 8 -18 9 15 9 20 1 37 6 37 11 0 6 -7 10 -15 10 -18 0 -20
16 -4 26 6 3 14 2 18 -4 10 -17 108 -3 115 15 4 8 3 19 0 25 -7 11 21 40 49
51 11 4 17 2 17 -9 0 -8 -4 -13 -9 -9 -11 6 -31 -25 -31 -47 1 -9 5 -7 14 4 7
10 16 14 20 10 4 -4 12 1 17 11 6 9 14 15 19 12 5 -3 25 10 44 30 30 29 42 35
78 35 32 0 39 -3 28 -10 -8 -5 -27 -10 -41 -10 -27 0 -54 -22 -42 -33 12 -13
33 -7 33 8 0 8 8 15 19 15 10 0 33 5 51 11 l32 12 -46 20 c-25 11 -46 25 -46
33 0 7 -5 16 -10 19 -6 4 -10 3 -9 -2z m-41 -82 c0 -13 -27 -21 -47 -14 -15 6
-15 7 3 14 27 11 44 11 44 0z"/>
<path d="M847 2686 c-8 -8 -23 -13 -33 -10 -11 2 -37 -9 -59 -24 -39 -27 -40
-30 -43 -89 -2 -45 2 -74 17 -105 10 -24 18 -59 17 -78 -1 -19 4 -41 11 -48 7
-8 11 -17 8 -21 -2 -5 7 -6 20 -3 l25 4 -24 19 c-14 11 -24 28 -23 39 1 19 3
18 27 -4 32 -30 70 -40 70 -19 0 8 -6 13 -13 10 -25 -9 -54 24 -77 90 -9 24
-8 26 3 11 8 -10 17 -15 20 -12 7 7 -13 46 -29 56 -16 11 -15 74 2 88 11 10
18 10 32 -4 36 -31 42 -16 8 18 -29 30 -32 37 -20 47 12 10 17 8 28 -6 7 -10
18 -15 24 -11 7 4 12 3 12 -2 0 -5 12 -17 26 -27 15 -10 23 -12 19 -4 -6 9 -3
11 8 6 11 -4 14 -2 10 9 -3 7 -12 14 -20 14 -8 0 -11 5 -7 11 9 15 59 4 95
-22 16 -11 33 -17 39 -14 18 11 11 20 -17 22 -15 0 -34 9 -43 20 -12 15 -80
53 -95 53 -2 0 -10 -6 -18 -14z"/>
<path d="M1375 2663 c11 -2 30 -6 43 -9 13 -2 20 -8 18 -13 -3 -5 3 -11 13
-14 28 -7 16 18 -15 32 -14 6 -37 10 -52 10 -20 -1 -22 -2 -7 -6z"/>
<path d="M1503 2635 c0 -8 4 -12 8 -9 4 2 10 -2 12 -8 4 -10 8 -9 16 2 10 13
15 8 12 -12 0 -5 6 -8 16 -8 14 0 14 2 -2 20 -10 11 -21 17 -26 15 -4 -3 -10
-1 -14 5 -9 15 -22 12 -22 -5z"/>
<path d="M1420 2589 c0 -5 4 -8 9 -5 5 4 11 1 13 -5 2 -5 11 -7 22 -3 14 5 15
9 4 15 -18 12 -48 11 -48 -2z"/>
<path d="M1759 2577 c6 -8 8 -17 4 -20 -3 -4 -1 -7 6 -7 7 0 27 -10 44 -22 23
-17 29 -18 25 -6 -5 12 -2 14 13 11 29 -8 23 4 -11 22 -17 9 -30 11 -30 5 0
-5 -4 -10 -10 -10 -5 0 -9 5 -7 11 1 6 -9 15 -22 20 -19 8 -22 7 -12 -4z"/>
<path d="M540 2576 c0 -5 103 -36 117 -35 4 0 -12 9 -37 19 -43 18 -80 25 -80
16z"/>
<path d="M2003 2568 c-27 -13 -29 -23 -7 -32 8 -3 12 -10 9 -16 -3 -6 4 -10
17 -9 13 0 17 3 11 6 -21 8 -15 21 15 37 18 9 33 11 43 5 12 -7 12 -9 -1 -9
-12 0 -13 -2 -1 -9 8 -5 10 -14 6 -21 -5 -9 -4 -11 3 -6 7 4 12 13 12 20 0 8
10 21 23 29 18 13 19 16 5 16 -9 1 -20 -4 -23 -9 -4 -7 -12 -7 -25 0 -24 13
-59 12 -87 -2z"/>
<path d="M1473 2541 c-28 -24 -30 -36 -3 -19 16 11 22 9 36 -7 14 -18 15 -18
10 -2 -3 10 -6 25 -6 33 0 19 -10 17 -37 -5z"/>
<path d="M2390 2530 c-49 -29 -56 -41 -25 -46 14 -2 30 9 49 32 15 19 26 37
24 38 -1 2 -23 -9 -48 -24z"/>
<path d="M2657 2520 c-31 -13 -57 -36 -57 -52 0 -10 -3 -18 -8 -18 -4 0 -18
-27 -30 -60 -14 -34 -30 -60 -38 -60 -15 0 -15 1 -19 37 -1 13 -7 29 -14 37
-9 11 -7 15 9 19 11 3 24 16 29 29 10 23 10 23 10 -4 1 -33 17 -37 26 -7 4 13
2 25 -5 29 -7 4 -10 17 -7 29 8 32 -9 25 -32 -14 -11 -19 -25 -35 -30 -35 -5
0 -14 -13 -19 -30 -9 -24 -8 -31 6 -40 12 -6 13 -9 3 -10 -11 0 -11 -3 0 -17
13 -15 12 -15 -8 -2 -27 16 -39 7 -24 -18 6 -10 11 -13 11 -7 0 14 43 11 48
-4 2 -6 -8 -22 -22 -35 -18 -17 -22 -27 -15 -34 8 -8 7 -13 -1 -18 -7 -4 -16
-1 -21 6 -7 11 -9 11 -9 -3 0 -9 -6 -18 -12 -21 -8 -2 -9 -8 -4 -13 5 -5 11
-4 13 4 3 6 12 12 20 12 9 0 13 -6 9 -15 -3 -8 -1 -15 5 -15 6 0 7 -4 4 -10
-3 -5 -2 -10 4 -10 6 0 10 16 8 36 -2 34 -1 36 53 54 38 13 60 15 72 9 12 -6
18 -6 18 1 0 5 5 10 11 10 5 0 7 -4 4 -10 -3 -5 1 -10 10 -10 8 0 18 -7 21
-15 8 -20 44 -19 44 1 0 8 -13 20 -30 25 -16 6 -30 15 -30 21 0 5 -9 6 -20 3
-11 -4 -38 -8 -60 -9 -22 -2 -46 -9 -55 -16 -27 -23 -17 9 11 35 28 26 49 31
59 15 9 -15 58 -13 52 3 -2 6 -14 11 -26 9 -21 -3 -21 -1 -11 20 10 19 10 21
-1 11 -7 -7 -17 -13 -21 -13 -20 0 -5 30 36 73 24 26 41 47 37 47 -5 0 -16 -9
-26 -20 -10 -11 -23 -20 -29 -20 -6 0 9 19 33 41 35 32 50 39 70 35 14 -3 20
-3 13 0 -6 3 -10 9 -7 14 5 8 -37 8 -58 0z"/>
<path d="M2274 2479 c-56 -28 -98 -65 -90 -78 6 -10 24 -10 66 -2 3 1 -1 5 -9
10 -22 14 -6 38 36 51 44 14 59 25 46 33 -6 4 -27 -3 -49 -14z"/>
<path d="M2929 2476 c-29 -8 -34 -14 -24 -23 9 -8 19 -6 41 13 33 26 33 26
-17 10z"/>
<path d="M1540 2450 c0 -13 7 -20 20 -20 23 0 26 10 8 28 -18 18 -28 15 -28
-8z"/>
<path d="M2323 2451 c-18 -9 -33 -23 -33 -30 0 -8 -12 -28 -27 -43 -17 -18
-22 -28 -12 -28 21 1 54 23 55 38 1 6 2 16 3 21 0 5 16 13 34 16 36 8 52 26
34 37 -14 9 -14 9 -54 -11z"/>
<path d="M2839 2451 c-31 -7 -96 -57 -87 -67 4 -3 19 -3 35 0 18 5 23 10 15
15 -16 10 -2 23 48 44 37 16 33 19 -11 8z"/>
<path d="M2368 2414 c-21 -13 -38 -29 -38 -34 0 -14 16 -12 32 3 8 6 22 17 33
23 20 11 33 34 18 33 -4 0 -25 -11 -45 -25z"/>
<path d="M1330 2415 c0 -4 7 -19 15 -35 9 -18 11 -31 5 -35 -6 -3 -13 1 -16 9
-3 9 -10 16 -15 16 -5 0 -4 -9 3 -20 7 -11 19 -18 27 -15 10 4 12 -1 7 -19 -3
-14 -1 -28 8 -35 19 -16 25 -4 16 30 -5 16 -7 29 -4 29 2 0 -5 18 -16 40 -18
36 -30 49 -30 35z"/>
<path d="M1650 2413 c0 -5 7 -26 15 -48 l14 -40 1 32 c0 37 -8 63 -21 63 -5 0
-9 -3 -9 -7z"/>
<path d="M2843 2406 c-26 -12 -29 -22 -10 -29 13 -5 30 11 35 31 1 7 1 11 0
11 -2 -1 -13 -6 -25 -13z"/>
<path d="M1720 2407 c0 -14 28 -63 44 -76 22 -18 20 1 -2 25 -10 10 -24 28
-30 39 -6 11 -12 16 -12 12z"/>
<path d="M1095 2370 c3 -5 19 -10 36 -10 32 0 34 -3 19 -31 -7 -13 -7 -19 0
-19 5 0 10 7 10 15 0 8 5 15 12 15 6 0 3 9 -7 20 -18 20 -82 29 -70 10z"/>
<path d="M1261 2364 c-1 -12 53 -54 70 -54 6 0 0 9 -14 20 -14 11 -30 20 -35
20 -6 0 -13 6 -15 13 -3 6 -6 7 -6 1z"/>
<path d="M2765 2355 c-22 -8 -41 -15 -43 -15 -2 0 0 -10 3 -22 6 -16 4 -20 -8
-15 -11 4 -14 2 -10 -8 3 -11 14 -13 36 -9 17 3 33 7 35 9 8 7 -10 25 -19 20
-5 -4 -9 -2 -9 4 0 6 9 15 19 21 25 13 34 13 26 0 -9 -14 6 -12 35 5 l25 15
-29 -6 c-21 -5 -27 -4 -22 5 9 13 10 14 -39 -4z"/>
<path d="M2935 2362 c-11 -8 -35 -48 -35 -59 0 -4 14 7 30 25 17 18 30 35 30
38 0 6 -14 5 -25 -4z"/>
<path d="M706 2339 c-14 -21 -20 -21 -353 -21 -186 0 -342 -3 -348 -7 -14 -9
374 -17 544 -11 98 3 148 1 156 -6 8 -8 14 -7 23 3 10 10 10 13 -3 13 -18 0
-20 21 -3 38 7 7 9 12 6 12 -4 0 -14 -10 -22 -21z"/>
<path d="M1070 2349 c0 -6 -7 -8 -16 -5 -8 3 -12 2 -9 -4 3 -5 -7 -22 -23 -37
-15 -15 -34 -43 -41 -61 -11 -25 -17 -30 -27 -21 -7 6 -10 18 -7 27 6 15 5 15
-11 3 -14 -12 -15 -16 -3 -22 17 -10 11 -59 -7 -56 -6 1 -11 -8 -11 -20 0 -34
-14 -38 -25 -7 -6 16 -18 37 -27 46 -9 10 -12 25 -8 40 5 19 3 17 -13 -7 -18
-29 -18 -30 0 -37 10 -4 18 -12 18 -18 0 -6 -4 -8 -10 -5 -15 9 -12 -4 5 -21
12 -12 15 -12 15 -2 0 10 3 9 10 -2 5 -9 5 -17 -1 -21 -10 -6 -6 -91 6 -121 5
-13 2 -18 -9 -18 -9 0 -19 0 -23 -1 -17 -1 -13 20 4 24 12 3 8 5 -10 6 -28 1
-28 0 -25 -51 3 -49 5 -53 31 -56 15 -2 27 2 27 8 0 6 -4 9 -9 6 -5 -3 -14 1
-21 9 -13 15 -5 20 26 16 6 -1 19 27 29 61 26 85 87 229 111 258 10 13 33 38
51 56 29 30 32 44 11 44 -4 0 -8 -5 -8 -11z"/>
<path d="M1635 2335 c4 -11 8 -28 9 -37 0 -9 2 -15 5 -13 2 3 9 -2 15 -9 13
-17 56 -31 56 -19 0 5 -10 13 -22 18 -12 6 -33 26 -47 45 -13 19 -20 26 -16
15z"/>
<path d="M2375 2340 c-4 -6 -21 -17 -39 -24 -28 -12 -33 -18 -29 -40 3 -14 9
-23 14 -20 5 3 7 10 4 15 -4 5 -3 9 2 9 4 0 21 16 36 35 15 19 26 35 23 35 -3
0 -8 -5 -11 -10z"/>
<path d="M2828 2321 c-27 -16 -33 -39 -9 -33 7 1 10 -2 6 -8 -3 -6 -11 -8 -16
-4 -6 3 -19 -2 -30 -12 -16 -15 -22 -16 -28 -5 -6 9 -11 10 -15 2 -4 -6 -4
-16 -1 -22 4 -6 -2 -13 -13 -16 -13 -3 -18 -11 -15 -19 7 -20 13 -18 53 17 23
21 42 29 57 26 22 -4 30 11 24 46 0 4 3 7 8 7 11 0 22 28 13 33 -4 2 -19 -3
-34 -12z"/>
<path d="M1480 2317 c0 -7 -9 -23 -20 -35 -12 -12 -17 -22 -12 -22 12 0 52 44
52 58 0 7 -4 12 -10 12 -5 0 -10 -6 -10 -13z"/>
<path d="M2430 2313 c0 -8 -12 -10 -35 -6 -35 6 -42 -1 -26 -26 9 -14 42 -10
71 8 12 8 12 13 2 23 -8 8 -12 9 -12 1z"/>
<path d="M1735 2301 c-12 -11 -3 -20 15 -16 11 2 28 -4 38 -14 16 -18 55 -41
66 -41 3 0 6 5 6 10 0 6 -7 10 -15 10 -8 0 -15 5 -15 10 0 6 -6 10 -13 10 -7
0 -18 9 -24 19 -11 18 -46 25 -58 12z"/>
<path d="M742 2274 c-5 -9 -7 -26 -4 -38 6 -18 7 -17 12 8 7 41 28 46 24 5 -2
-17 0 -38 6 -48 8 -13 9 -12 10 7 0 13 4 21 9 17 6 -3 9 3 8 14 0 11 -6 19
-11 18 -6 -1 -10 5 -11 13 0 21 -32 24 -43 4z"/>
<path d="M36 2271 c-25 -5 -50 -31 -30 -31 19 0 84 24 84 32 0 9 -10 9 -54 -1z"/>
<path d="M1890 2259 c0 -5 8 -9 18 -9 11 0 27 -9 37 -20 10 -11 20 -18 22 -16
3 2 -5 14 -17 26 -23 23 -60 35 -60 19z"/>
<path d="M2321 2241 c-52 -19 -72 -47 -21 -29 24 8 34 8 43 -2 9 -10 8 -12 -5
-7 -10 4 -18 -1 -21 -14 -3 -10 -1 -19 5 -19 18 0 38 28 32 45 -4 10 -1 21 7
25 27 17 3 18 -40 1z"/>
<path d="M2814 2211 c-11 -10 -26 -21 -34 -24 -13 -4 -12 -6 1 -6 8 -1 24 5
34 13 11 8 25 12 31 9 7 -2 15 2 20 9 4 7 4 10 -1 6 -4 -4 -13 -3 -20 2 -8 6
-18 4 -31 -9z"/>
<path d="M2555 2200 c-3 -11 -14 -20 -23 -21 -11 0 -12 -3 -4 -6 23 -9 12 -31
-23 -47 -19 -9 -35 -22 -35 -27 0 -6 -10 -9 -22 -8 -13 2 -29 0 -35 -4 -24
-15 -53 12 -53 48 0 37 -8 43 -28 23 -18 -18 -16 -69 3 -62 8 4 15 1 15 -5 0
-6 6 -11 14 -11 29 0 29 -23 1 -48 -41 -35 -18 -42 68 -20 40 10 79 18 87 17
18 0 -46 -26 -113 -44 -26 -8 -51 -16 -56 -19 -9 -6 -27 26 -35 64 -3 14 -12
34 -20 45 -14 18 -14 17 -6 -17 4 -21 5 -38 1 -38 -3 0 -1 -4 5 -8 6 -4 15
-20 21 -37 11 -33 27 -38 58 -18 34 23 40 14 11 -16 -16 -16 -25 -34 -22 -39
4 -6 2 -13 -4 -17 -22 -14 -2 -185 22 -185 4 0 5 28 1 63 -11 96 -10 130 6
135 10 3 12 0 8 -12 -4 -9 -2 -16 2 -16 17 0 41 12 41 21 0 4 -6 6 -14 3 -19
-7 -31 15 -16 29 10 9 11 9 6 0 -3 -6 12 -2 34 10 22 12 40 28 40 36 0 10 -8
7 -25 -9 -20 -18 -25 -20 -25 -8 0 9 -3 18 -7 21 -5 2 -3 2 4 1 6 -2 17 4 24
12 7 8 18 13 25 10 11 -4 59 26 106 67 9 8 25 18 36 21 11 4 26 14 35 24 14
16 14 17 -10 19 -17 1 -21 -2 -13 -7 9 -6 8 -11 -8 -19 -27 -14 -35 -14 -26 2
4 6 -4 1 -17 -13 -13 -13 -23 -28 -22 -32 4 -10 -43 -22 -55 -14 -5 3 -30 -1
-57 -9 -27 -8 -50 -13 -53 -10 -14 13 14 33 82 59 75 28 77 30 74 60 -2 26 1
32 20 34 17 3 21 -1 19 -16 -1 -11 -11 -27 -20 -36 -9 -10 -17 -23 -17 -29 0
-7 14 3 30 21 16 17 33 32 36 32 4 0 13 8 21 18 14 16 14 16 9 -1 -5 -15 -2
-16 14 -7 11 6 20 19 20 29 0 16 -7 19 -40 18 -22 -1 -40 -5 -40 -9 0 -5 -4
-8 -10 -8 -5 0 -7 7 -4 15 4 10 0 15 -14 15 -12 0 -23 -9 -27 -20z"/>
<path d="M2879 2185 c-15 -8 -29 -21 -32 -29 -3 -7 -26 -24 -51 -36 -25 -13
-47 -29 -50 -37 -7 -18 9 -17 24 2 7 8 19 15 28 15 12 0 10 -6 -8 -25 -12 -13
-27 -22 -32 -19 -14 9 -45 -5 -45 -21 0 -21 18 -19 71 11 39 22 44 28 36 44
-14 26 13 41 53 29 27 -7 67 2 67 17 0 2 -9 0 -19 -6 -26 -13 -31 -13 -31 5 0
8 6 16 13 16 6 1 23 3 35 4 13 1 34 12 45 25 l22 22 -33 -16 c-18 -9 -37 -14
-41 -11 -5 3 -11 0 -13 -7 -3 -7 -11 -9 -24 -4 -17 7 -15 10 16 21 22 9 28 14
15 14 -11 0 -32 -6 -46 -14z"/>
<path d="M30 2171 c-8 -6 -18 -7 -22 -5 -14 9 -8 -13 7 -26 8 -7 15 -19 15
-26 0 -8 5 -14 11 -14 14 0 6 -25 -9 -26 -7 -1 -16 -2 -22 -3 -13 -1 -6 -44 8
-49 6 -2 14 8 18 23 5 20 10 24 27 19 22 -7 47 -28 47 -39 0 -4 14 -20 31 -36
21 -20 38 -28 50 -24 12 4 21 1 25 -9 3 -9 15 -16 27 -16 18 0 18 -2 -7 -25
-29 -27 -46 -32 -46 -13 0 6 -10 2 -23 -10 -30 -29 -37 -28 -38 6 -1 20 -3 22
-6 8 -3 -11 -11 -25 -18 -33 -16 -15 -8 -53 10 -53 7 0 15 -5 17 -11 2 -7 17
-12 33 -13 30 -1 30 -2 30 -61 1 -76 -5 -106 -18 -98 -6 4 -7 1 -3 -6 6 -9 12
-8 26 4 14 13 18 13 23 2 11 -28 -9 -39 -62 -34 -34 3 -49 1 -44 -6 4 -6 0 -8
-10 -4 -10 4 -17 2 -17 -4 0 -7 10 -9 25 -5 18 5 25 2 25 -9 0 -8 -5 -15 -12
-15 -9 0 -9 -3 0 -12 7 -7 12 -16 12 -20 0 -15 -28 -8 -41 11 -13 17 -17 18
-48 4 -41 -17 -37 -23 25 -29 74 -8 96 -7 104 6 6 9 9 9 15 1 3 -7 15 -9 24
-6 20 6 26 -25 7 -37 -7 -5 -7 -8 2 -8 7 0 11 -4 7 -9 -3 -6 2 -14 11 -19 12
-7 15 -15 9 -28 -4 -11 -8 -28 -9 -39 -1 -22 -33 -26 -112 -15 -22 4 -48 4
-58 0 -13 -4 -9 -9 18 -21 20 -9 33 -12 30 -7 -4 6 13 8 42 5 56 -4 76 -25 56
-57 -9 -15 -10 -26 -2 -40 21 -39 -20 -37 -49 3 -9 13 -20 17 -38 12 -18 -4
-23 -2 -17 6 4 7 3 9 -4 6 -5 -4 -8 -16 -5 -26 3 -10 0 -22 -6 -25 -12 -8 -15
-74 -5 -100 3 -8 12 -12 20 -9 8 3 21 -1 30 -8 13 -10 17 -10 25 2 15 24 10
29 -21 23 -25 -5 -31 -2 -41 19 -17 37 11 80 49 75 27 -3 43 -26 56 -78 3 -14
3 -19 0 -12 -8 17 -24 15 -24 -3 0 -8 5 -15 10 -15 6 0 10 -10 11 -22 l0 -23
9 22 c14 35 48 279 55 393 3 58 8 120 11 138 4 29 2 32 -19 32 -13 0 -31 8
-40 18 -19 20 -23 47 -7 37 6 -4 7 -11 4 -17 -4 -7 -2 -8 4 -4 7 4 12 14 12
22 0 8 8 14 18 14 9 0 24 5 32 11 11 8 4 9 -27 6 -39 -5 -60 6 -31 15 8 3 6
13 -7 35 -15 26 -22 29 -51 26 -19 -2 -34 1 -34 7 0 5 -7 10 -15 10 -8 0 -15
4 -15 10 0 14 48 7 94 -13 52 -23 79 -23 49 1 -23 18 -20 34 9 45 10 4 15 13
11 25 -2 11 0 23 6 26 7 5 4 15 -9 28 -12 14 -16 24 -10 28 12 7 3 40 -11 40
-5 0 -9 -6 -9 -14 0 -19 -37 -27 -44 -9 -7 18 14 41 34 36 11 -3 10 0 -2 10
-10 8 -18 20 -18 27 0 10 3 10 15 0 8 -7 21 -10 29 -7 8 3 16 1 18 -4 3 -8 88
-7 271 3 181 9 271 10 279 3 7 -7 7 -4 0 11 -6 12 -8 24 -5 28 3 3 2 6 -4 6
-5 0 -9 9 -9 20 1 10 -3 18 -9 17 -5 -1 -8 -10 -7 -19 3 -15 -4 -18 -40 -18
-90 -1 -327 -12 -413 -19 -57 -5 -95 -4 -103 2 -7 5 -15 7 -19 4 -3 -4 -14 -2
-24 3 -17 10 -17 8 -4 -23 16 -39 6 -58 -26 -50 -20 6 -20 30 0 26 6 -2 11 1
11 6 0 11 -36 21 -77 21 -35 0 -41 8 -21 28 9 9 9 15 0 24 -21 21 -13 31 21
24 30 -5 31 -5 13 9 -22 17 -54 19 -76 6z m166 -295 c16 -17 19 -36 4 -36 -9
0 -30 31 -30 44 0 10 11 7 26 -8z m46 -312 c5 -3 8 -11 8 -18 0 -14 -68 -9
-88 7 -9 7 -11 5 -6 -9 5 -15 4 -16 -4 -4 -18 25 6 43 47 35 20 -4 39 -9 43
-11z"/>
<path d="M200 2168 c0 -7 -3 -23 -6 -35 -4 -14 -2 -23 5 -23 6 0 11 11 11 25
0 14 5 25 11 25 5 0 7 5 4 10 -9 14 -25 12 -25 -2z"/>
<path d="M2761 2150 c-13 -11 -20 -20 -17 -20 4 0 -2 -10 -14 -22 -32 -35 -13
-35 23 0 18 18 38 32 44 32 6 0 13 7 17 15 8 22 -24 18 -53 -5z"/>
<path d="M2932 2112 c-12 -8 -7 -42 7 -42 8 0 41 38 41 47 0 3 -9 -2 -20 -12
-18 -17 -20 -17 -14 -2 7 19 5 20 -14 9z"/>
<path d="M2647 2072 c-21 -4 -118 -97 -110 -105 8 -8 34 4 28 13 -7 12 62 70
85 71 32 2 38 4 45 10 8 8 -25 16 -48 11z"/>
<path d="M2872 2054 c-22 -15 -22 -34 1 -34 8 0 8 3 -1 9 -11 7 -10 10 3 15 9
3 21 4 26 0 5 -3 9 2 9 10 0 20 -10 20 -38 0z"/>
<path d="M2940 2030 c-30 -28 -38 -40 -26 -40 21 0 86 51 86 68 0 21 -15 14
-60 -28z"/>
<path d="M2647 2023 c-4 -3 -7 -14 -7 -24 0 -9 -6 -20 -12 -23 -7 -3 -4 -5 7
-3 11 1 20 7 20 14 0 6 4 15 9 20 6 5 6 2 1 -6 -6 -11 -4 -13 9 -8 10 4 20 7
22 7 2 0 4 5 4 11 0 5 -5 7 -10 4 -6 -4 -17 -2 -24 4 -7 6 -16 8 -19 4z"/>
<path d="M1614 2005 c33 -17 66 -20 66 -5 0 7 6 7 20 0 14 -8 20 -8 20 0 0 17
-29 23 -45 10 -12 -10 -21 -10 -41 -1 -37 16 -54 13 -20 -4z"/>
<path d="M662 1953 c2 -39 7 -58 16 -57 6 1 27 2 46 3 30 1 33 4 28 26 -3 20
-10 25 -33 25 -24 0 -29 4 -29 24 0 20 6 25 33 29 24 3 20 4 -16 5 l-49 2 4
-57z"/>
<path d="M326 1991 c-2 -3 -1 -30 1 -59 l6 -53 51 3 c43 3 51 6 51 23 0 17 -7
20 -40 20 -38 0 -40 2 -40 30 0 27 3 30 33 30 17 0 32 3 32 8 0 9 -89 7 -94
-2z"/>
<path d="M1444 1985 c-45 -11 -78 -38 -71 -58 4 -9 6 -9 6 1 1 7 5 11 10 8 5
-3 38 3 73 13 34 11 80 23 101 26 53 10 46 25 -13 25 -33 0 -50 -4 -50 -12 0
-8 -3 -9 -8 -3 -5 7 -20 7 -48 0z"/>
<path d="M117 1976 c-4 -10 -15 -16 -24 -14 -11 2 -25 -8 -38 -27 -22 -35 -25
-47 -10 -57 18 -13 22 -9 18 20 -4 25 -3 25 10 10 20 -25 24 -23 32 12 5 22
12 30 28 30 13 0 17 3 11 8 -6 4 -13 14 -16 21 -3 12 -6 11 -11 -3z"/>
<path d="M1836 1965 c3 -14 -1 -31 -12 -43 -10 -12 -18 -31 -19 -44 -6 -68
-18 -147 -27 -176 -18 -61 -103 -100 -255 -117 -65 -8 -138 8 -127 27 4 6 2 8
-3 5 -6 -4 -19 6 -28 21 -10 15 -29 38 -42 51 -22 23 -33 68 -13 56 6 -3 10
-12 10 -20 0 -7 7 -16 16 -19 23 -9 24 -8 21 13 -4 24 -31 51 -52 51 -9 0 -13
5 -10 10 4 6 1 17 -5 25 -9 11 -9 18 4 30 9 9 16 14 16 10 0 -3 10 1 23 10 13
8 27 12 30 8 4 -3 7 1 7 10 0 10 7 17 15 17 8 0 15 5 15 10 0 7 -7 7 -20 0
-11 -6 -24 -8 -29 -5 -5 3 -12 -1 -14 -7 -3 -7 -6 -2 -7 12 -1 23 -2 23 -9 5
-5 -11 -6 -24 -3 -29 3 -5 1 -6 -5 -3 -5 3 -20 -1 -32 -9 -15 -11 -20 -22 -16
-37 6 -20 5 -21 -8 -4 -11 14 -23 16 -61 11 -42 -6 -50 -4 -85 24 -33 26 -38
28 -34 12 4 -15 0 -20 -16 -20 -12 0 -24 7 -27 15 -8 20 -34 19 -34 0 0 -12
-4 -14 -16 -7 -19 11 -54 4 -54 -10 0 -12 -43 -6 -52 7 -5 6 -8 4 -8 -5 0 -10
-31 -25 -93 -45 -74 -24 -93 -34 -95 -51 -4 -29 -81 -42 -247 -43 -72 0 -136
0 -144 0 -25 -1 -1 -15 27 -16 15 0 27 -6 28 -12 1 -7 2 -17 3 -23 0 -5 9 -7
19 -4 14 5 14 4 3 -4 -12 -8 -12 -14 -3 -25 7 -7 8 -17 4 -21 -4 -4 -7 -32 -8
-62 0 -30 -5 -53 -10 -52 -5 2 -9 11 -8 20 0 9 -3 15 -8 12 -5 -3 -8 -26 -7
-51 3 -44 3 -44 19 -23 15 20 18 20 23 6 5 -11 3 -15 -5 -10 -7 5 -9 -1 -4
-20 4 -16 2 -26 -4 -26 -6 0 -8 -4 -5 -10 3 -5 12 -10 19 -10 13 0 24 90 29
233 2 54 4 57 32 66 49 14 73 9 78 -17 3 -14 -1 -26 -8 -29 -9 -3 -11 -13 -5
-33 4 -16 6 -31 3 -34 -3 -3 0 -12 7 -21 10 -12 10 -15 -2 -15 -11 0 -14 -11
-13 -40 1 -22 -2 -40 -7 -40 -5 0 -4 -9 2 -21 9 -15 8 -24 -1 -35 -7 -9 -8
-14 -1 -14 17 0 26 22 24 57 -2 18 1 33 5 33 7 0 12 48 14 163 1 62 20 74 90
57 51 -12 76 -7 49 10 -11 7 -7 10 15 9 17 0 24 -3 18 -6 -7 -2 -13 -9 -13
-14 0 -18 21 2 32 29 10 26 10 26 18 6 7 -19 81 -51 104 -45 18 4 45 -32 44
-60 -1 -15 -4 -26 -8 -24 -9 6 -20 -19 -20 -46 0 -11 -7 -22 -15 -25 -21 -9
-8 -24 20 -24 15 0 26 7 30 20 9 28 3 190 -7 184 -20 -12 -5 13 17 30 14 10
25 26 25 35 0 14 -2 14 -10 1 -7 -12 -12 -12 -22 -2 -10 10 -8 14 10 18 12 4
22 10 22 16 0 5 -10 3 -22 -3 -13 -7 -25 -12 -28 -10 -3 1 -6 -14 -8 -34 -2
-24 -8 -35 -19 -35 -22 0 -113 33 -113 42 0 7 60 30 139 53 64 18 174 20 220
4 22 -8 36 -22 46 -46 14 -33 13 -42 -12 -125 -14 -49 -36 -99 -48 -112 -37
-40 -217 -71 -265 -46 -33 18 -89 133 -90 184 0 19 -1 18 -21 -3 -14 -15 -29
-21 -45 -18 -17 3 -28 -3 -39 -19 -9 -13 -11 -24 -6 -24 5 0 11 4 13 9 2 6 14
11 28 13 14 2 31 7 38 12 17 10 22 5 28 -30 3 -16 9 -31 13 -34 5 -3 11 -15
15 -27 4 -12 21 -36 37 -54 29 -31 30 -38 34 -128 2 -63 8 -106 19 -126 16
-30 21 -86 10 -98 -9 -9 -15 -73 -17 -204 -2 -100 -4 -113 -24 -130 -30 -25
-57 -46 -75 -58 -49 -32 -77 -53 -108 -82 -19 -18 -41 -33 -48 -33 -7 0 -11
-4 -8 -9 3 -5 -5 -16 -18 -24 -38 -25 -98 -89 -176 -187 -19 -24 -43 -52 -53
-62 -9 -10 -31 -49 -48 -86 l-30 -68 -87 -23 c-48 -12 -94 -24 -102 -25 -8 -2
-17 -11 -18 -20 -2 -11 1 -16 10 -14 7 1 61 17 120 33 l108 30 16 54 c15 52
103 178 193 275 47 51 185 165 295 245 l89 63 -8 57 c-13 90 -3 255 16 293 5
10 3 32 -6 58 -8 24 -15 53 -15 66 0 13 -5 24 -11 24 -5 0 -7 4 -4 10 3 5 9
31 12 57 9 75 14 81 80 81 32 -1 83 7 115 17 48 15 57 22 62 46 3 16 19 63 35
106 16 43 32 89 35 103 9 38 19 49 53 56 27 5 31 3 42 -27 6 -17 11 -45 11
-60 0 -19 5 -29 15 -29 8 0 15 -4 15 -8 0 -5 25 -35 55 -67 30 -33 55 -65 55
-72 0 -7 4 -13 10 -13 18 0 32 -40 19 -56 -10 -12 -28 -13 -95 -8 l-83 7 -11
-28 c-9 -23 -13 -25 -25 -15 -9 8 -15 9 -15 2 0 -22 40 -23 66 -3 30 24 54 27
73 9 10 -10 12 -10 7 -1 -5 9 3 11 30 7 51 -6 71 2 79 33 4 19 0 35 -15 55
-12 16 -20 31 -18 33 1 1 38 5 81 9 42 4 88 10 100 15 13 5 49 12 80 16 52 7
90 25 52 25 -13 0 -12 5 6 29 23 32 48 133 49 199 0 23 4 42 10 42 5 0 7 -7 4
-15 -5 -11 -2 -13 10 -9 12 5 13 10 5 26 -12 23 3 40 28 31 7 -3 13 0 13 7 0
9 12 11 42 6 55 -9 47 -3 -35 27 l-67 24 6 -22z"/>
<path d="M2951 1977 c-14 -6 -26 -19 -28 -27 -4 -13 -3 -13 5 -1 6 8 17 16 25
17 8 1 23 7 34 13 27 15 -5 14 -36 -2z"/>
<path d="M0 1971 c0 -14 23 -29 36 -24 22 8 16 20 -11 25 -14 3 -25 2 -25 -1z"/>
<path d="M1213 1925 c0 -20 5 -35 12 -35 7 0 10 11 7 30 -6 43 -19 46 -19 5z"/>
<path d="M1600 1952 c-8 -3 -26 -9 -40 -15 -14 -6 -35 -11 -48 -12 -31 -3 -37
-11 -12 -18 11 -3 20 -1 20 4 0 11 23 7 32 -6 5 -6 8 -5 8 3 0 9 7 11 19 7 11
-3 22 -1 26 5 3 5 17 10 31 10 14 0 23 4 20 9 -8 12 -38 19 -56 13z"/>
<path d="M1715 1952 c-17 -2 -36 -12 -43 -22 -11 -18 -9 -19 21 -14 17 3 38 8
45 10 18 5 28 -26 11 -37 -11 -7 -9 -9 8 -9 20 0 21 3 12 32 -11 40 -17 44
-54 40z"/>
<path d="M2609 1945 c-1 -5 -1 -13 0 -17 0 -3 -13 -21 -30 -39 -16 -18 -26
-35 -22 -39 14 -13 84 2 90 19 3 9 13 24 21 33 13 15 12 19 -1 32 -13 14 -16
14 -21 -1 -6 -14 -8 -14 -21 3 -8 10 -15 15 -16 9z"/>
<path d="M2884 1936 c-3 -8 -17 -17 -30 -20 -14 -4 -22 -11 -19 -16 10 -16 75
21 75 42 0 14 -20 9 -26 -6z"/>
<path d="M2737 1920 c-3 -12 0 -20 8 -20 15 0 28 -28 19 -42 -4 -6 3 -5 15 1
23 13 29 34 7 25 -9 -3 -17 6 -24 25 -13 36 -18 38 -25 11z"/>
<path d="M2441 1861 l-23 -18 58 -1 c50 -1 55 1 37 10 -13 6 -23 15 -23 20 0
14 -24 9 -49 -11z"/>
<path d="M11 1837 c-15 -15 -14 -64 2 -70 10 -4 10 -7 0 -18 -18 -18 -16 -42
2 -35 10 4 15 -1 15 -14 0 -11 -4 -20 -10 -20 -5 0 -10 -4 -10 -9 0 -5 9 -7
20 -4 11 3 17 9 14 14 -3 5 2 9 10 9 9 0 16 5 16 10 0 6 -4 10 -10 10 -13 0
-52 82 -43 91 5 4 18 9 31 11 12 1 23 8 22 13 -1 15 -47 24 -59 12z"/>
<path d="M1544 1823 c-12 -2 -34 -17 -49 -34 -16 -16 -39 -29 -52 -29 -13 0
-23 -5 -23 -11 0 -8 11 -9 31 -5 17 3 35 6 39 6 4 0 10 9 13 19 2 10 14 24 26
30 18 10 21 8 27 -13 5 -21 9 -23 38 -16 17 4 41 12 53 18 23 13 53 6 53 -11
0 -7 4 -7 12 1 10 10 10 15 -2 22 -38 25 -109 34 -166 23z"/>
<path d="M2770 1808 c0 -10 -10 -23 -22 -29 -13 -7 -29 -20 -36 -31 -18 -24
-46 -23 -64 3 -13 20 -15 20 -30 5 -21 -20 -38 -21 -38 -1 0 8 -4 15 -10 15
-5 0 -10 7 -10 15 0 12 -13 15 -57 15 -48 0 -62 -5 -80 -24 -13 -13 -23 -27
-23 -30 0 -8 33 -4 40 5 11 15 134 14 126 0 -3 -5 1 -11 9 -15 22 -8 18 -21
-7 -22 -56 -4 -162 -31 -166 -44 -3 -9 1 -11 12 -7 9 4 47 12 84 18 214 34
232 39 252 59 11 11 20 24 20 29 0 5 5 11 12 13 8 3 8 9 0 24 -10 16 -11 17
-12 2z"/>
<path d="M2891 1779 c-47 -5 -86 -11 -87 -12 -2 -2 -1 -12 2 -22 5 -19 12 -20
96 -15 90 5 91 5 94 33 1 16 -2 26 -9 26 -7 -1 -50 -6 -96 -10z"/>
<path d="M119 1762 c-17 -12 -26 -13 -40 -4 -21 13 -35 -1 -16 -15 6 -6 24
-13 40 -17 23 -5 27 -3 27 14 0 17 4 19 25 14 14 -3 25 -2 25 4 0 17 -38 20
-61 4z"/>
<path d="M1050 1715 c-19 -6 -40 -10 -46 -8 -6 2 -14 -6 -18 -19 -5 -19 -8
-20 -15 -8 -8 11 -12 9 -20 -13 -6 -16 -11 -35 -11 -43 0 -8 -5 -14 -12 -14
-6 0 -8 -3 -4 -7 4 -4 18 5 32 20 14 15 31 27 38 27 7 0 18 11 24 25 14 30 32
33 32 4 0 -15 5 -19 18 -15 9 2 27 7 39 11 18 5 40 33 31 40 -13 10 -59 11
-88 0z"/>
<path d="M1605 1720 l-50 -7 53 -1 c29 -1 52 2 52 8 0 6 -1 9 -2 8 -2 0 -25
-4 -53 -8z"/>
<path d="M2755 1686 c-27 -6 -44 -14 -36 -17 17 -6 157 13 167 24 11 11 -74 7
-131 -7z"/>
<path d="M2930 1687 c-26 -7 -30 -11 -17 -15 27 -6 87 7 87 18 0 12 -25 11
-70 -3z"/>
<path d="M776 1625 c4 -33 10 -64 14 -68 4 -5 3 18 -2 50 -12 80 -19 90 -12
18z"/>
<path d="M2610 1670 c-24 -8 -24 -8 5 -8 17 0 41 4 55 8 24 8 24 8 -5 8 -16 0
-41 -4 -55 -8z"/>
<path d="M2766 1649 c-37 -5 -75 -13 -85 -19 -25 -15 77 -12 121 3 36 13 62
28 42 26 -5 -1 -40 -5 -78 -10z"/>
<path d="M2923 1648 c-35 -5 -63 -14 -63 -20 0 -13 86 -1 120 18 28 15 28 15
-57 2z"/>
<path d="M2576 1634 c-80 -19 -85 -28 -11 -19 60 8 133 35 90 34 -11 0 -47 -7
-79 -15z"/>
<path d="M346 1623 c-3 -3 -6 -25 -6 -47 0 -29 3 -37 9 -26 6 8 8 18 5 22 -3
4 0 16 6 27 10 19 0 37 -14 24z"/>
<path d="M2945 1604 c-27 -7 -67 -14 -87 -14 -68 0 -47 -16 38 -28 82 -12 104
-11 104 8 0 5 -24 7 -52 4 l-53 -4 47 17 c37 14 77 36 57 32 -2 0 -26 -7 -54
-15z"/>
<path d="M2778 1604 c-3 -3 -32 -9 -64 -14 -33 -5 -75 -11 -94 -14 l-35 -6 30
15 c29 15 29 15 -30 9 -33 -3 -90 -16 -127 -28 -70 -23 -89 -19 -40 9 l27 16
-30 -6 c-16 -4 -31 -8 -33 -9 -1 -2 -7 -30 -13 -62 -10 -51 -37 -141 -64 -209
-7 -18 -6 -18 8 -5 9 8 24 38 35 65 19 48 52 74 52 41 0 -9 5 -16 10 -16 6 0
10 5 10 10 0 14 27 13 32 -1 2 -7 14 -8 38 -1 l35 9 -47 8 c-26 4 -51 4 -57 1
-8 -5 -19 12 -21 34 -1 3 -5 22 -9 43 -5 20 -6 37 -2 37 3 0 36 -5 73 -10 41
-6 76 -6 90 -1 17 7 3 10 -57 10 -63 1 -76 3 -66 14 8 8 52 12 139 13 125 1
183 10 232 39 23 13 23 14 4 15 -11 0 -23 -3 -26 -6z"/>
<path d="M17 1581 c-4 -17 -1 -18 27 -10 17 5 32 9 33 9 2 0 3 5 3 10 0 6 -13
10 -29 10 -20 0 -30 -6 -34 -19z"/>
<path d="M2329 1545 c-3 -27 -9 -59 -13 -70 -4 -11 0 -7 9 8 10 17 15 44 13
70 l-3 42 -6 -50z"/>
<path d="M1316 1571 c-3 -5 1 -11 9 -15 9 -3 12 -12 8 -22 -4 -12 -3 -15 5
-10 7 4 12 13 12 21 0 8 8 19 18 24 14 9 12 10 -15 11 -17 0 -34 -4 -37 -9z"/>
<path d="M2730 1538 c0 -10 67 -21 86 -14 9 4 22 2 28 -2 6 -5 22 -5 36 -1 14
4 18 8 10 9 -116 12 -160 15 -160 8z"/>
<path d="M2919 1507 c-23 -9 -23 -9 -4 -17 11 -4 25 -4 30 0 6 5 21 10 35 12
23 3 23 4 -6 9 -18 3 -42 1 -55 -4z"/>
<path d="M1564 1445 c66 -63 86 -76 86 -55 0 6 -4 10 -9 10 -5 0 -35 25 -68
55 -32 30 -62 54 -68 54 -5 0 21 -29 59 -64z"/>
<path d="M2576 1501 c-19 -7 -19 -8 2 -13 12 -4 25 -2 28 3 7 12 51 12 56 0 2
-5 17 -3 33 4 29 13 28 13 -35 13 -36 1 -74 -3 -84 -7z"/>
<path d="M97 1472 c-9 -2 -14 -8 -10 -14 4 -7 0 -9 -10 -5 -11 4 -17 1 -17 -8
0 -8 6 -15 13 -15 6 0 22 -3 35 -6 13 -4 22 -2 22 5 0 6 -7 11 -15 11 -8 0
-15 5 -15 10 0 14 5 13 52 -10 23 -11 53 -19 67 -19 17 1 20 3 9 6 -10 2 -18
11 -18 19 0 12 -34 20 -64 15 -4 -1 -13 2 -20 7 -6 5 -19 7 -29 4z"/>
<path d="M2404 1473 c4 -5 22 -8 39 -8 20 0 31 -5 30 -12 -4 -17 -4 -17 43 7
l39 19 -79 1 c-44 0 -76 -3 -72 -7z"/>
<path d="M2710 1470 c9 -6 35 -8 64 -4 42 5 48 4 43 -9 -5 -13 -1 -14 24 -5
51 18 40 23 -55 26 -66 2 -87 0 -76 -8z"/>
<path d="M1084 1405 c-10 -30 -21 -55 -26 -55 -4 0 -8 -13 -8 -28 0 -15 -11
-43 -25 -62 -22 -30 -23 -35 -10 -43 10 -5 14 -16 10 -27 -4 -13 2 -26 19 -41
13 -12 22 -28 19 -35 -3 -8 0 -14 7 -14 10 0 9 -4 0 -16 -16 -18 -21 -56 -11
-73 5 -8 15 -9 32 -2 l24 10 -28 0 c-16 1 -26 5 -22 11 4 6 10 8 15 5 12 -7
17 3 24 46 4 27 1 42 -13 58 -10 11 -21 18 -25 14 -3 -3 -6 0 -6 8 0 8 5 20
12 27 6 6 8 15 4 19 -4 4 -12 1 -17 -7 -7 -11 -8 -3 -4 25 3 22 7 54 8 72 1
17 5 29 9 27 3 -2 9 9 13 26 4 16 10 30 13 30 4 0 8 18 10 40 1 22 0 40 -2 40
-3 0 -13 -25 -22 -55z"/>
<path d="M2535 1441 c-17 -7 -15 -9 13 -13 17 -2 32 -2 32 2 0 8 44 8 50 -1 3
-4 18 -5 33 -2 21 4 25 8 15 14 -16 11 -116 10 -143 0z"/>
<path d="M2880 1439 c-40 -7 -29 -10 58 -14 34 -1 62 1 62 5 0 11 -77 16 -120
9z"/>
<path d="M1147 1420 c-3 -11 -1 -23 5 -26 5 -3 7 -12 4 -20 -3 -8 -2 -14 2
-14 11 0 43 61 36 71 -10 17 -42 9 -47 -11z"/>
<path d="M2695 1410 c-18 -8 -18 -9 5 -10 14 -1 37 -1 53 0 15 1 27 -3 27 -9
0 -7 10 -9 28 -5 48 12 48 19 2 26 -60 9 -91 8 -115 -2z"/>
<path d="M330 1400 c-1 -8 -4 -32 -5 -53 -2 -21 -6 -45 -9 -53 -3 -8 -1 -14 4
-14 9 0 15 39 11 64 -1 4 2 13 7 20 5 6 6 20 1 31 -5 14 -8 15 -9 5z"/>
<path d="M1200 1381 c0 -6 4 -11 10 -11 5 0 8 -6 6 -12 -1 -7 -1 -10 1 -5 8
13 22 7 28 -13 3 -11 11 -20 16 -20 15 0 10 30 -6 36 -8 4 -12 11 -8 17 3 6 1
7 -6 3 -6 -4 -18 -2 -26 4 -11 9 -15 9 -15 1z"/>
<path d="M1490 1380 c-9 -6 -10 -10 -3 -10 6 0 16 -12 21 -27 l10 -28 1 25 c1
35 -11 51 -29 40z"/>
<path d="M2510 1381 c8 -6 34 -7 57 -4 26 3 43 2 43 -4 0 -11 48 -5 55 7 3 4
-35 8 -83 9 -59 1 -82 -2 -72 -8z"/>
<path d="M1645 1370 c-3 -5 2 -10 11 -10 10 0 15 -3 11 -6 -3 -4 1 -13 9 -21
8 -8 12 -19 8 -24 -3 -5 0 -8 6 -7 7 2 14 -13 16 -37 3 -26 1 -35 -5 -26 -12
19 -25 -22 -17 -55 6 -24 -8 -34 -17 -11 -3 6 -6 8 -6 2 -1 -21 17 -38 34 -31
13 4 16 15 13 40 -2 19 2 38 9 45 21 19 15 55 -18 104 -31 47 -43 55 -54 37z"/>
<path d="M2830 1370 c8 -6 31 -10 50 -9 19 1 43 -2 53 -6 9 -4 25 -4 35 0 15
7 14 9 -8 15 -39 12 -148 12 -130 0z"/>
<path d="M2430 1350 c0 -12 27 -12 55 0 16 7 13 9 -17 9 -21 1 -38 -3 -38 -9z"/>
<path d="M2680 1349 c-40 -7 -14 -13 39 -10 18 2 37 -2 41 -8 7 -12 40 -5 40
9 0 11 -77 16 -120 9z"/>
<path d="M1308 1345 c-8 -8 4 -65 13 -65 5 0 12 0 16 0 4 0 8 6 9 14 2 16 -30
59 -38 51z"/>
<path d="M2485 1320 c4 -6 25 -9 51 -6 33 4 44 2 44 -8 0 -12 6 -12 31 -3 l31
12 -28 6 c-50 11 -136 10 -129 -1z"/>
<path d="M2820 1311 c-21 -6 -22 -8 -7 -14 9 -3 31 -4 48 0 20 4 34 1 39 -7 5
-9 17 -10 36 -5 l29 8 -40 8 c-73 16 -80 17 -105 10z"/>
<path d="M1244 1294 c3 -9 6 -20 6 -26 0 -6 9 -3 21 8 19 17 19 19 2 25 -29
12 -36 10 -29 -7z"/>
<path d="M1607 1291 c-14 -5 -12 -8 12 -18 25 -9 31 -8 36 5 3 9 3 13 -1 9 -4
-4 -12 -3 -18 2 -6 5 -19 6 -29 2z"/>
<path d="M1134 1276 c-3 -8 -12 -12 -20 -9 -12 4 -13 0 -5 -20 5 -14 7 -28 4
-31 -4 -3 2 -6 11 -6 14 0 17 5 13 22 -3 12 -2 30 4 40 5 10 7 18 4 18 -3 0
-8 -6 -11 -14z"/>
<path d="M1168 1263 c3 -16 7 -23 9 -17 2 7 13 9 25 6 15 -4 19 -1 16 9 -3 8
-11 13 -18 11 -7 -1 -18 2 -25 8 -9 8 -11 4 -7 -17z"/>
<path d="M2628 1278 c6 -6 30 -11 54 -10 23 1 44 -2 47 -7 4 -5 17 -4 31 2
l25 10 -30 7 c-16 4 -55 8 -84 9 -42 1 -52 -2 -43 -11z"/>
<path d="M301 1208 c-7 -35 -14 -72 -16 -83 -13 -75 -28 -146 -50 -235 -18
-70 -43 -196 -50 -245 -3 -16 4 -3 15 30 11 33 20 67 20 76 0 9 13 67 30 130
26 99 55 231 65 294 2 11 4 22 5 25 1 3 1 16 0 29 -1 16 2 21 10 16 8 -5 11
-3 8 5 -11 34 -27 16 -37 -42z"/>
<path d="M2450 1260 c8 -5 34 -9 56 -8 23 0 47 -2 52 -6 6 -4 24 -3 39 1 26 7
25 8 -17 14 -69 11 -148 11 -130 -1z"/>
<path d="M2936 1253 c21 -15 50 -17 58 -4 3 5 -12 11 -35 13 -35 3 -38 2 -23
-9z"/>
<path d="M1589 1245 c-3 -2 -47 -7 -99 -9 -52 -3 -115 -10 -140 -16 -25 -6
-82 -15 -128 -20 -87 -10 -147 -30 -83 -28 19 1 37 -4 39 -10 6 -20 32 -13 32
9 0 13 5 19 13 17 6 -3 53 1 102 8 50 8 107 16 128 19 24 4 44 1 54 -6 11 -10
16 -10 22 -1 4 7 16 12 27 10 27 -2 84 13 84 23 0 9 -43 13 -51 4z"/>
<path d="M2755 1240 c3 -5 26 -10 51 -10 24 0 52 -5 63 -11 12 -8 23 -9 36 -2
14 8 5 13 -47 22 -80 14 -111 14 -103 1z"/>
<path d="M2612 1213 c8 -10 23 -14 49 -10 31 4 38 1 42 -14 3 -10 13 -19 23
-19 9 0 26 -7 36 -17 12 -10 18 -12 18 -4 0 8 11 11 28 9 16 -2 26 -8 24 -17
-2 -9 3 -11 14 -7 9 3 28 9 42 13 23 5 18 8 -33 19 -33 7 -80 13 -105 14 -41
1 -43 2 -20 12 25 11 25 11 -10 18 -19 4 -54 10 -78 13 -38 5 -41 3 -30 -10z"/>
<path d="M2445 1200 c-7 -11 5 -14 58 -11 30 2 37 -1 38 -16 0 -10 3 -13 6 -5
2 6 13 12 24 12 38 0 18 17 -27 24 -65 9 -92 8 -99 -4z"/>
<path d="M30 1190 c0 -5 -8 -6 -17 -3 -16 6 -16 5 -4 -10 17 -21 37 -22 45 -1
9 22 8 24 -9 24 -8 0 -15 -4 -15 -10z"/>
<path d="M2910 1180 c8 -5 33 -10 55 -10 29 0 36 3 25 10 -8 5 -33 10 -55 10
-29 0 -36 -3 -25 -10z"/>
<path d="M1323 1162 c-18 -2 -33 -7 -33 -11 0 -8 70 -4 78 3 7 8 -14 11 -45 8z"/>
<path d="M2580 1151 c8 -6 34 -11 58 -11 23 0 42 -4 42 -9 0 -5 10 -7 22 -3
21 5 21 5 -3 14 -37 14 -137 21 -119 9z"/>
<path d="M2370 1107 c0 -17 -4 -46 -9 -64 -7 -26 -7 -31 5 -26 10 4 14 23 14
64 0 32 -2 59 -5 59 -3 0 -5 -15 -5 -33z"/>
<path d="M2424 1133 c4 -4 24 -8 44 -9 53 -3 54 -3 48 -12 -7 -12 98 -54 116
-47 9 4 19 1 23 -4 3 -6 11 -9 16 -6 5 3 28 10 51 14 l43 9 -55 2 c-30 1 -64
3 -75 5 -11 2 -39 7 -62 10 -42 6 -60 24 -25 26 11 1 9 4 -8 9 -32 10 -126 12
-116 3z"/>
<path d="M901 1120 c0 -8 5 -31 12 -50 7 -19 12 -76 12 -126 0 -83 2 -91 17
-83 10 5 14 16 11 29 -4 14 0 20 11 20 11 0 16 9 16 26 0 15 -4 23 -11 19 -6
-4 -8 -14 -4 -22 4 -13 3 -14 -10 -3 -18 15 -20 46 -2 53 7 3 4 6 -6 6 -17 1
-17 3 -3 16 15 16 12 45 -5 45 -5 0 -9 8 -9 18 -1 9 -7 28 -15 42 -8 14 -14
19 -14 10z"/>
<path d="M2860 1119 c0 -9 36 -22 70 -25 14 -1 36 -5 50 -9 23 -7 24 -6 10 8
-16 17 -130 40 -130 26z"/>
<path d="M2720 1100 c8 -5 32 -10 54 -10 33 0 38 -3 33 -20 -4 -14 0 -20 12
-20 9 0 26 -7 37 -15 10 -8 33 -15 51 -15 17 0 33 -5 35 -12 3 -7 14 -9 34 -4
l29 8 -45 13 c-25 8 -67 19 -94 26 -40 10 -46 14 -33 24 14 10 11 13 -17 23
-41 15 -118 16 -96 2z"/>
<path d="M2445 1072 c6 -6 30 -14 55 -18 31 -4 42 -3 35 4 -5 5 -30 13 -55 17
-31 5 -42 4 -35 -3z"/>
<path d="M1415 1050 c4 -11 2 -20 -4 -20 -6 0 -11 5 -11 10 0 6 -5 10 -11 10
-6 0 -9 -7 -5 -15 7 -19 1 -19 -18 1 -15 14 -16 14 -16 0 0 -9 -4 -16 -10 -16
-5 0 -10 -11 -10 -25 0 -14 5 -25 11 -25 6 0 9 7 5 15 -3 8 -1 15 5 15 6 0 7
5 4 10 -3 6 -2 10 3 10 6 0 12 -7 16 -15 3 -8 15 -15 27 -15 18 0 19 2 9 15
-10 12 -10 15 0 15 7 0 19 -8 26 -17 12 -16 13 -16 14 -1 0 9 6 18 13 21 8 3
3 11 -13 25 -32 27 -43 28 -35 2z"/>
<path d="M200 1045 c0 -8 -4 -15 -9 -15 -11 0 -27 -59 -55 -195 -8 -38 -15
-72 -16 -75 -1 -3 -1 -18 0 -34 1 -16 -5 -45 -13 -65 -26 -66 -36 -121 -21
-121 8 0 14 10 15 23 1 29 4 45 22 108 40 136 93 389 82 389 -3 0 -5 -7 -5
-15z"/>
<path d="M1171 1039 c-1 -9 6 -22 14 -29 8 -7 15 -20 15 -30 0 -15 8 -17 45
-15 25 1 45 -1 45 -4 0 -4 9 -7 21 -7 18 0 18 2 5 12 -9 6 -16 16 -16 23 0 7
-9 9 -25 5 -26 -6 -36 10 -12 20 6 3 -2 5 -18 4 -17 -1 -36 1 -43 5 -6 5 -12
5 -13 0 0 -4 -4 1 -9 12 -7 15 -9 16 -9 4z"/>
<path d="M2705 1030 c11 -5 32 -9 47 -9 15 -1 30 -5 33 -11 3 -5 18 -10 33 -9
20 1 14 5 -28 19 -58 20 -125 27 -85 10z"/>
<path d="M890 964 c0 -47 3 -64 10 -54 8 14 4 109 -6 119 -2 2 -4 -27 -4 -65z"/>
<path d="M2550 1017 c48 -19 130 -31 130 -19 0 10 -30 17 -115 27 l-50 5 35
-13z"/>
<path d="M1660 1001 c0 -8 -7 -11 -20 -8 -15 4 -20 0 -20 -16 0 -13 3 -17 8
-11 4 7 17 14 29 15 17 3 20 7 13 19 -8 12 -10 12 -10 1z"/>
<path d="M2804 975 c16 -9 49 -21 73 -27 32 -8 43 -15 41 -27 -3 -16 58 -54
77 -48 5 2 -7 11 -28 20 -38 16 -42 36 -9 38 19 1 -144 57 -168 58 -8 1 -2 -6
14 -14z"/>
<path d="M2686 956 c11 -8 34 -17 50 -19 16 -2 29 -9 29 -15 0 -16 74 -52 107
-52 22 0 28 -5 28 -23 0 -16 12 -29 45 -47 24 -13 47 -21 50 -18 3 3 -14 16
-39 28 -55 26 -61 45 -11 37 41 -7 39 8 -2 16 -16 3 -56 15 -90 27 -61 21 -81
39 -45 41 15 1 -4 6 -116 34 -26 6 -26 6 -6 -9z"/>
<path d="M2552 935 c20 -14 41 -25 45 -25 4 0 1 5 -7 10 -12 8 -11 10 8 10 12
0 22 -6 22 -13 0 -14 88 -57 116 -57 9 0 14 -5 12 -12 -4 -12 94 -67 120 -68
6 0 12 -8 12 -17 0 -10 17 -30 38 -44 40 -28 82 -42 82 -28 0 5 -6 9 -13 9
-17 0 -97 52 -97 64 0 5 17 6 38 3 42 -6 38 -4 -85 44 -46 17 -83 36 -83 41 0
6 7 8 15 4 8 -3 15 -2 15 2 0 4 -30 16 -67 26 -85 24 -90 26 -67 39 16 9 8 13
-46 23 -93 18 -99 17 -58 -11z"/>
<path d="M2151 870 c-46 -44 -87 -80 -92 -80 -5 0 -9 -4 -9 -10 0 -17 18 -11
46 15 123 114 162 155 148 155 -5 0 -47 -36 -93 -80z"/>
<path d="M1623 934 c-7 -3 -9 -12 -6 -20 3 -8 -1 -14 -8 -14 -7 0 -10 -2 -7
-5 8 -9 38 6 32 16 -3 5 0 9 5 9 6 0 11 5 11 10 0 11 -7 12 -27 4z"/>
<path d="M986 901 c-8 -12 19 -33 29 -23 5 4 5 2 1 -5 -6 -11 62 -165 76 -171
5 -2 8 -9 8 -16 0 -16 27 -72 52 -108 11 -16 17 -32 14 -36 -3 -5 5 -8 17 -8
15 1 21 -4 19 -16 -2 -11 6 -20 21 -23 l24 -6 -24 -66 c-31 -85 -54 -125 -70
-119 -7 3 -13 2 -13 -3 0 -5 12 -11 26 -14 28 -5 49 11 60 46 3 12 16 35 27
50 17 24 18 32 7 52 -16 29 -4 54 14 29 10 -14 76 -43 97 -44 4 0 9 9 12 19 3
14 1 18 -9 14 -8 -3 -14 0 -14 7 0 6 -5 8 -10 5 -15 -9 -70 4 -70 17 0 6 9 8
20 5 11 -3 20 -1 20 5 0 5 -12 8 -27 7 -41 -3 -67 9 -80 37 -10 22 -9 26 10
35 l22 10 -22 -5 c-13 -2 -26 0 -29 5 -3 5 -9 7 -13 4 -5 -2 -13 7 -19 20 -7
14 -16 25 -21 25 -6 0 -8 6 -5 14 3 8 1 17 -5 21 -6 3 -11 15 -11 26 0 10 -5
19 -11 19 -6 0 -8 7 -5 16 3 8 2 12 -3 9 -5 -3 -13 5 -17 17 -4 13 -18 40 -30
60 -13 21 -24 47 -24 57 0 22 -35 47 -44 32z"/>
<path d="M1496 873 c2 -6 -2 -14 -9 -17 -7 -3 -2 -3 11 0 21 5 22 4 11 -14 -7
-12 -16 -19 -20 -16 -4 2 -10 -3 -13 -12 -11 -29 2 -26 25 5 l23 31 25 -22
c24 -21 24 -21 -2 8 -15 17 -24 34 -20 39 5 4 0 5 -9 2 -9 -3 -19 -3 -21 1 -2
4 -2 2 -1 -5z"/>
<path d="M1105 851 c-4 -13 -4 -25 -1 -28 3 -4 6 -1 6 6 0 7 7 11 15 8 19 -8
26 5 14 23 -7 13 -9 13 -9 0 0 -12 -2 -13 -9 -1 -7 11 -10 9 -16 -8z"/>
<path d="M2390 831 c0 -11 -135 -81 -156 -81 -6 0 -18 -8 -25 -17 -8 -9 -50
-33 -94 -54 -44 -21 -91 -45 -105 -54 -14 -8 -60 -31 -103 -51 -90 -41 -97
-57 -10 -24 110 43 134 54 141 64 4 6 38 27 77 46 38 19 110 59 159 88 49 28
92 52 95 52 4 0 15 6 26 13 12 10 14 16 7 21 -7 4 -12 3 -12 -3z"/>
<path d="M2577 812 c-3 -15 -1 -31 4 -37 7 -7 10 -7 9 0 -5 22 1 27 15 15 21
-17 19 -3 -4 26 l-19 24 -5 -28z"/>
<path d="M918 816 c-10 -7 -18 -17 -18 -21 0 -12 -41 -45 -56 -45 -7 0 -14 -3
-16 -8 -1 -4 -16 -17 -32 -30 -23 -18 -25 -22 -10 -21 27 1 105 50 118 74 6
11 14 22 17 25 6 5 20 40 16 40 -1 0 -10 -7 -19 -14z"/>
<path d="M1220 784 c-17 -9 -20 -14 -9 -14 9 0 19 -7 23 -15 3 -8 10 -15 16
-15 6 0 4 7 -4 16 -22 21 -20 27 6 18 20 -6 21 -5 9 10 -7 9 -14 16 -15 15 0
-1 -12 -7 -26 -15z"/>
<path d="M1997 746 c-8 -8 -17 -12 -21 -9 -3 4 -6 -2 -6 -11 0 -13 -6 -17 -20
-13 -11 3 -18 1 -15 -3 7 -12 -52 -53 -65 -45 -5 3 -10 -1 -10 -9 0 -9 -5 -16
-10 -16 -6 0 -20 -9 -32 -20 -12 -10 -25 -17 -29 -15 -4 3 -11 -4 -14 -15 -4
-12 -12 -19 -18 -17 -7 2 -20 -5 -29 -16 -10 -11 -18 -17 -18 -13 0 4 -12 -2
-27 -14 -15 -12 -29 -17 -31 -11 -2 6 -16 -3 -32 -19 -15 -16 -46 -34 -69 -40
-22 -6 -43 -15 -46 -20 -4 -6 -11 -8 -16 -4 -15 9 -99 -6 -99 -17 0 -6 9 -7
20 -4 11 3 29 3 41 0 16 -5 18 -9 8 -21 -10 -12 -9 -13 7 -7 59 22 201 98 254
135 34 24 90 61 124 83 55 36 139 99 174 132 7 7 8 14 3 17 -5 4 -16 0 -24 -8z"/>
<path d="M2820 727 c0 -21 17 -30 60 -33 l35 -3 -35 16 c-19 8 -41 20 -47 25
-10 8 -13 6 -13 -5z"/>
<path d="M922 704 c-29 -7 -65 -20 -80 -29 l-27 -14 37 2 c20 1 34 5 32 9 -4
7 57 30 72 27 5 -1 20 -1 34 0 20 1 22 3 10 11 -18 12 -13 12 -78 -6z"/>
<path d="M2553 706 c-5 -10 -16 -19 -24 -20 -17 -4 -47 -14 -74 -27 -14 -7 -9
-8 20 -3 22 3 45 9 50 14 6 4 27 13 48 19 37 13 51 31 22 31 -8 0 -15 -6 -15
-12 0 -10 -3 -9 -9 1 -7 11 -10 10 -18 -3z"/>
<path d="M1170 675 c7 -8 16 -12 21 -9 5 3 9 0 9 -6 0 -6 4 -9 9 -6 5 3 11 -1
15 -9 3 -8 12 -12 21 -9 8 3 15 2 15 -4 0 -6 9 -8 20 -5 11 3 20 13 19 22 0
10 -2 11 -6 4 -2 -7 -12 -13 -21 -13 -15 0 -15 2 -2 11 12 8 10 9 -9 4 -16 -5
-21 -4 -17 4 5 7 1 9 -8 5 -9 -3 -18 0 -21 8 -3 7 -17 15 -31 16 -22 2 -25 0
-14 -13z"/>
<path d="M2921 634 c12 -15 11 -16 -9 -10 -26 9 -29 -2 -4 -20 20 -16 36 -18
27 -5 -3 5 -1 12 5 16 5 3 10 1 10 -5 0 -6 5 -8 10 -5 6 4 18 1 26 -6 12 -10
13 -9 8 5 -3 9 -11 16 -18 16 -6 0 -24 7 -40 15 -26 14 -28 14 -15 -1z"/>
<path d="M603 536 c-33 -42 -42 -76 -23 -76 10 0 14 13 11 37 -1 6 14 27 32
47 19 20 29 36 23 36 -6 0 -26 -20 -43 -44z"/>
<path d="M932 541 c-18 -9 -30 -20 -26 -23 3 -4 -3 -4 -15 -1 -12 3 -21 1 -21
-5 0 -17 -117 -71 -128 -60 -6 6 -12 3 -15 -6 -3 -8 -2 -18 3 -21 6 -4 10 -1
10 4 0 6 3 10 8 9 8 -3 56 15 132 49 30 14 70 32 88 40 18 7 30 18 27 23 -8
13 -24 11 -63 -9z"/>
<path d="M2940 540 c0 -5 9 -15 20 -22 11 -7 20 -18 20 -25 0 -6 5 -15 11 -19
19 -11 0 48 -19 63 -21 15 -32 16 -32 3z"/>
<path d="M1031 497 c-6 -6 -11 -17 -11 -24 0 -10 6 -10 28 -1 41 18 46 25 18
30 -14 3 -30 0 -35 -5z"/>
<path d="M10 492 c-17 -6 -11 -20 7 -18 12 1 21 -14 33 -51 22 -73 30 -75 30
-10 0 30 3 62 6 71 4 12 -2 14 -30 13 -19 -1 -40 -3 -46 -5z"/>
<path d="M531 462 c-13 -25 -15 -102 -2 -102 9 0 25 109 17 117 -2 3 -9 -4
-15 -15z"/>
<path d="M1 401 c-1 -35 2 -61 6 -57 4 3 13 -6 20 -21 12 -27 13 -27 7 13 -3
23 -11 61 -19 85 l-14 44 0 -64z"/>
<path d="M2137 453 c-7 -12 -1 -193 7 -201 7 -7 11 85 6 148 -3 38 -8 60 -13
53z"/>
<path d="M471 398 c1 -13 1 -36 0 -53 -1 -23 -3 -27 -11 -15 -7 11 -10 5 -10
-25 -1 -35 -2 -38 -14 -22 -19 25 -26 21 -26 -17 0 -19 -4 -38 -10 -41 -12 -7
-14 -45 -2 -45 10 0 52 55 52 68 0 4 14 27 30 49 29 40 30 43 18 82 -14 44
-30 55 -27 19z"/>
<path d="M391 334 c-25 -51 -33 -83 -36 -138 l-5 -71 14 75 c8 41 26 101 40
134 37 81 26 81 -13 0z"/>
<path d="M1318 311 c-27 -9 -48 -20 -48 -24 0 -5 4 -6 9 -2 5 3 11 -3 14 -12
3 -15 6 -14 15 7 8 18 11 20 11 7 1 -16 4 -16 31 5 17 12 30 25 30 30 0 10 -3
9 -62 -11z"/>
<path d="M1064 294 c-10 -16 -23 -32 -28 -36 -24 -17 5 -17 38 -1 40 20 41 22
22 48 -13 18 -14 17 -32 -11z"/>
<path d="M1130 247 c0 -4 -4 -5 -10 -2 -5 3 -10 -1 -10 -9 0 -18 16 -21 25 -6
3 6 15 10 26 10 10 0 19 4 19 10 0 5 -11 9 -25 8 -14 -1 -25 -6 -25 -11z"/>
<path d="M1198 254 c-3 -3 -2 -21 4 -40 10 -39 7 -43 -59 -87 -24 -15 -43 -35
-43 -45 1 -15 3 -15 18 3 24 29 87 75 101 75 7 0 19 -6 27 -14 12 -12 12 -17
1 -28 -7 -7 -21 -25 -31 -40 -10 -15 -22 -25 -27 -22 -5 3 -6 -2 -3 -10 5 -13
10 -11 27 12 11 15 47 54 79 86 32 32 58 61 58 64 0 2 -20 -12 -44 -32 -49
-40 -55 -38 -77 29 -15 45 -23 58 -31 49z"/>
<path d="M2200 230 c-74 -15 -205 -68 -220 -89 -3 -4 -25 -21 -50 -38 -25 -17
-56 -44 -70 -59 -22 -25 -19 -24 20 7 128 100 226 148 351 174 82 16 111 26
73 24 -10 0 -57 -9 -104 -19z"/>
<path d="M317 233 c-10 -16 3 -137 13 -126 5 4 5 37 1 73 -3 38 -9 60 -14 53z"/>
<path d="M921 211 c-25 -35 -28 -55 -3 -24 16 21 31 27 61 24 11 -1 10 -5 -4
-21 -10 -11 -13 -20 -8 -20 6 0 13 7 17 15 3 8 12 15 21 15 8 0 15 4 15 9 0 9
-9 12 -62 27 -10 3 -24 -6 -37 -25z"/>
<path d="M1024 158 c-3 -5 1 -11 10 -14 9 -3 12 -12 8 -22 -5 -15 -4 -15 11
-3 24 19 22 47 -4 47 -11 0 -23 -4 -25 -8z"/>
<path d="M241 143 c0 -6 -18 -22 -38 -34 -21 -13 -41 -28 -45 -33 -5 -7 -8 -7
-8 2 0 10 -5 10 -21 2 -27 -15 -16 -25 25 -22 31 3 33 2 28 -27 -2 -19 0 -31
7 -31 6 0 11 6 11 13 0 6 12 34 26 60 14 27 23 56 21 65 -3 9 -5 12 -6 5z"/>
</g>
</svg>
